<?xml version="1.0" encoding="iso-8859-1"?>
<!-- Uploaded to: SVG Repo, www.svgrepo.com, Generator: SVG Repo Mixer Tools -->
<svg height="800px" width="800px" version="1.1" id="Layer_1" xmlns="http://www.w3.org/2000/svg" xmlns:xlink="http://www.w3.org/1999/xlink" 
	 viewBox="0 0 512 512" xml:space="preserve">
<polygon style="fill:#FCC447;" points="357.287,243.406 357.287,308.029 288.2,308.029 288.2,483.636 223.589,483.636 
	223.589,308.029 154.502,308.029 154.502,243.406 223.589,243.406 223.589,176.326 288.2,176.326 288.2,243.406 "/>
<polygon style="fill:#FFCF83;" points="357.287,243.406 357.287,308.029 288.2,308.029 288.2,483.636 223.589,483.636 
	288.2,176.326 288.2,243.406 "/>
<path d="M366.043,308.025v-64.617c0-4.778-3.873-8.652-8.652-8.652H296.96v-58.435c0-4.778-3.873-8.652-8.652-8.652H223.69
	c-4.778,0-8.652,3.874-8.652,8.652v58.435h-60.432c-4.778,0-8.652,3.874-8.652,8.652v64.617c0,4.778,3.874,8.652,8.652,8.652h60.432
	v166.954c0,4.778,3.874,8.652,8.652,8.652h64.618c4.779,0,8.652-3.874,8.652-8.652V379.326c0-4.778-3.873-8.652-8.652-8.652
	s-8.652,3.874-8.652,8.652v95.654h-47.315V308.025c0-4.778-3.874-8.652-8.652-8.652h-60.432V252.06h60.432
	c4.778,0,8.652-3.874,8.652-8.652v-58.435h47.315v58.435c0,4.778,3.872,8.652,8.652,8.652h60.431v47.314h-60.431
	c-4.779,0-8.652,3.874-8.652,8.652v45.153c0,4.778,3.873,8.652,8.652,8.652s8.652-3.874,8.652-8.652v-36.501h60.431
	C362.17,316.677,366.043,312.803,366.043,308.025z"/>
<path d="M257.215,126.097c4.779,0,8.652-3.874,8.652-8.652V28.368c0-4.778-3.873-8.652-8.652-8.652
	c-4.778,0-8.652,3.874-8.652,8.652v89.077C248.564,122.224,252.437,126.097,257.215,126.097z"/>
<path d="M503.348,268.28h-35.857c-4.779,0-8.652,3.874-8.652,8.652c0,4.778,3.872,8.652,8.652,8.652h35.857
	c4.779,0,8.652-3.874,8.652-8.652C512,272.154,508.126,268.28,503.348,268.28z"/>
<path d="M414.271,268.28c-4.779,0-8.652,3.874-8.652,8.652c0,4.778,3.872,8.652,8.652,8.652h29.38c4.779,0,8.652-3.874,8.652-8.652
	c0-4.778-3.873-8.652-8.652-8.652H414.271z"/>
<path d="M368.774,173.313c2.214,0,4.429-0.844,6.118-2.534l62.987-62.987c3.379-3.379,3.379-8.857,0-12.235
	c-3.38-3.379-8.857-3.379-12.236,0l-62.987,62.987c-3.379,3.379-3.379,8.856,0,12.235
	C364.346,172.469,366.561,173.313,368.774,173.313z"/>
<path d="M88.076,93.838c-3.378-3.379-8.856-3.379-12.235,0c-3.379,3.379-3.379,8.856,0,12.235l35.6,35.6
	c1.689,1.69,3.904,2.534,6.117,2.534s4.429-0.844,6.117-2.534c3.379-3.379,3.379-8.856,0-12.235L88.076,93.838z"/>
<path d="M138.827,169.061c1.689,1.69,3.904,2.534,6.117,2.534c2.214,0,4.429-0.844,6.117-2.534c3.379-3.379,3.379-8.856,0-12.235
	l-8.93-8.93c-3.379-3.379-8.857-3.379-12.235,0c-3.379,3.379-3.379,8.856,0,12.235L138.827,169.061z"/>
<path d="M106.381,274.501c0-4.778-3.874-8.652-8.652-8.652H8.652c-4.778,0-8.652,3.874-8.652,8.652s3.874,8.652,8.652,8.652h89.077
	C102.507,283.153,106.381,279.28,106.381,274.501z"/>
<path d="M108.781,408.982l-34.659,34.659c-3.379,3.379-3.379,8.856,0,12.235c1.689,1.69,3.904,2.534,6.117,2.534
	s4.429-0.844,6.117-2.534l34.659-34.659c3.379-3.379,3.379-8.856,0-12.235C117.638,405.604,112.16,405.603,108.781,408.982z"/>
<path d="M137.108,380.655l-6.796,6.795c-3.379,3.379-3.379,8.857,0,12.236c1.689,1.69,3.904,2.534,6.117,2.534
	c2.214,0,4.429-0.844,6.117-2.534l6.796-6.795c3.379-3.379,3.379-8.857,0-12.236C145.967,377.276,140.488,377.276,137.108,380.655z"
	/>
<path d="M373.174,382.373c-3.38-3.378-8.857-3.379-12.236,0s-3.379,8.856,0,12.235l62.987,62.987c1.69,1.69,3.904,2.534,6.118,2.534
	c2.214,0,4.429-0.844,6.118-2.534c3.379-3.379,3.379-8.856,0-12.235L373.174,382.373z"/>
<path d="M188.567,132.345c1.381,3.331,4.602,5.342,7.997,5.342c1.104,0,2.226-0.212,3.308-0.661c4.415-1.83,6.51-6.89,4.681-11.305
	l-21.025-50.736c-1.828-4.414-6.891-6.51-11.305-4.681c-4.415,1.83-6.51,6.89-4.681,11.305L188.567,132.345z"/>
<path d="M394.697,219.584c1.381,3.333,4.602,5.343,7.998,5.343c1.103,0,2.225-0.212,3.307-0.661l50.735-21.012
	c4.414-1.828,6.512-6.889,4.683-11.304c-1.83-4.415-6.889-6.512-11.305-4.682l-50.735,21.012
	C394.967,210.108,392.869,215.169,394.697,219.584z"/>
<path d="M314.377,137.955c1.082,0.449,2.203,0.661,3.307,0.661c3.395,0,6.616-2.011,7.997-5.342l21.025-50.748
	c1.83-4.415-0.266-9.475-4.682-11.305c-4.41-1.827-9.474,0.266-11.304,4.681l-21.025,50.748
	C307.866,131.065,309.962,136.127,314.377,137.955z"/>
<path d="M56.19,201.005l50.736,21.013c1.082,0.449,2.203,0.661,3.307,0.661c3.395,0,6.617-2.012,7.997-5.343
	c1.828-4.415-0.268-9.475-4.683-11.304l-50.736-21.013c-4.414-1.827-9.475,0.268-11.304,4.682S51.776,199.177,56.19,201.005z"/>
<path d="M117.302,331.854c-1.828-4.415-6.891-6.511-11.305-4.682l-50.723,21.012c-4.415,1.828-6.511,6.89-4.682,11.304
	c1.381,3.332,4.602,5.343,7.997,5.343c1.104,0,2.225-0.212,3.308-0.661l50.723-21.012
	C117.034,341.33,119.13,336.269,117.302,331.854z"/>
<path d="M455.811,350.434l-50.735-21.025c-4.411-1.827-9.475,0.265-11.305,4.68c-1.83,4.415,0.265,9.475,4.681,11.305l50.735,21.025
	c1.082,0.449,2.204,0.661,3.308,0.661c3.394,0,6.616-2.011,7.997-5.342C462.32,357.324,460.226,352.263,455.811,350.434z"/>
</svg>