<?xml version="1.0" encoding="iso-8859-1"?>
<!-- Uploaded to: SVG Repo, www.svgrepo.com, Generator: SVG Repo Mixer Tools -->
<svg height="800px" width="800px" version="1.1" id="Layer_1" xmlns="http://www.w3.org/2000/svg" xmlns:xlink="http://www.w3.org/1999/xlink" 
	 viewBox="0 0 480 480" xml:space="preserve">
<g transform="translate(0 -1020.36)">
	<g shape-rendering="auto" image-rendering="auto" color-rendering="auto" color-interpolation="sRGB">
		<path style="fill:#464C63;" d="M240,1020.36c-19.818,0-34.544,15.379-37.656,34.344c-18.965,3.112-34.344,17.838-34.344,37.656
			c0,18.906,14.318,32.559,32,36.688v43.313h-75.312c-4.13-17.684-17.782-32-36.688-32c-19.818,0-34.544,15.379-37.656,34.344
			C31.379,1177.815,16,1192.542,16,1212.36s15.381,34.545,34.344,37.656c3.109,18.969,17.835,34.344,37.656,34.344
			c18.909,0,32.562-14.313,36.688-32H200v139.313c-17.683,4.129-32,17.783-32,36.688c0,19.818,15.381,34.545,34.344,37.656
			c3.109,18.969,17.835,34.344,37.656,34.344s34.547-15.377,37.656-34.344c18.963-3.111,34.344-17.838,34.344-37.656
			c0-18.906-14.317-32.561-32-36.688V1252.36h75.312c4.126,17.688,17.779,32,36.688,32c19.821,0,34.547-15.377,37.656-34.344
			c18.963-3.111,34.344-17.838,34.344-37.656s-15.379-34.545-34.344-37.656c-3.112-18.965-17.838-34.344-37.656-34.344
			c-18.906,0-32.558,14.316-36.688,32H280v-43.313c17.682-4.129,32-17.783,32-36.688c0-19.818-15.379-34.544-34.344-37.656
			C274.544,1035.739,259.818,1020.36,240,1020.36z"/>
		<path style="fill:#FFB900;" d="M240,1036.36c13.434,0,24,10.566,24,24c0.007,4.195,3.252,7.672,7.437,7.969
			c0.187,0.006,0.373,0.006,0.56,0c13.435,0,24,10.566,24,24c0,13.436-10.565,24-24,24c-4.184,0.004-7.657,3.234-7.968,7.406
			c-0.007,0.191-0.007,0.4,0,0.592v56c0.007,4.195,3.252,7.672,7.437,7.969c0.187,0.006,0.373,0.006,0.56,0h88
			c0.272,0.014,0.544,0.014,0.816,0c4.075-0.416,7.178-3.842,7.189-7.938c0-1.678,0.192-3.332,0.496-4.906
			c2.206-11.021,11.746-19.094,23.501-19.094c13.434,0,24,10.566,24,24c0.007,4.195,3.252,7.672,7.437,7.969
			c0.187,0.006,0.373,0.006,0.56,0c13.435,0,24,10.566,24,24c0,13.436-10.565,24-24,24c-4.184,0.004-7.657,3.234-7.968,7.406
			c-0.007,0.191-0.007,0.4,0,0.592c0,11.756-8.072,21.295-19.094,23.5c-1.568,0.32-3.227,0.496-4.906,0.496
			c-13.435,0-24-10.564-24-24c0-4.418-3.582-8-8-8h-88c-4.185,0.004-7.659,3.234-7.97,7.406c-0.007,0.191-0.007,0.4,0,0.592v152
			c0.007,4.195,3.253,7.674,7.438,7.969c0.187,0.006,0.373,0.006,0.56,0c13.434,0,24,10.566,24,24c0,13.436-10.566,24-24,24
			c-4.185,0.004-7.659,3.234-7.97,7.406c-0.007,0.191-0.007,0.4,0,0.592c0,11.756-8.07,21.295-19.093,23.5
			c-1.568,0.32-3.227,0.496-4.907,0.496c-13.434,0-24-10.564-24-24c0-4.418-3.582-8-8-8c-13.434,0-24-10.564-24-24
			c0-1.678,0.192-3.332,0.496-4.906c2.206-11.021,11.746-19.094,23.501-19.094c4.418,0,8-3.582,8-8v-152c0-4.418-3.582-8-8-8h-88
			c-4.185,0.004-7.659,3.234-7.97,7.406c-0.007,0.191-0.007,0.4,0,0.592c0,11.756-8.07,21.295-19.093,23.5
			c-1.568,0.32-3.227,0.496-4.907,0.496c-13.434,0-24-10.564-24-24c0-4.418-3.582-8-8-8c-13.434,0-24-10.564-24-24
			c0-1.678,0.192-3.332,0.496-4.906c2.206-11.021,11.746-19.094,23.501-19.094c4.418,0,8-3.582,8-8c0-13.434,10.565-24,24-24
			c13.434,0,24,10.566,24,24c0.007,4.195,3.252,7.672,7.437,7.969c29.47,0,59.051,0,88.56,0c0.272,0.014,0.544,0.014,0.816,0
			c4.074-0.416,7.176-3.842,7.187-7.938v-56c0-4.418-3.582-8-8-8c-13.434,0-24-10.564-24-24c0-1.678,0.192-3.332,0.496-4.906
			c2.206-11.021,11.746-19.094,23.501-19.094c4.418,0,8-3.582,8-8c0-13.434,10.565-24,24-24L240,1036.36z"/>
	</g>
	<path style="fill:#464C63;" d="M248,1212.36c0,4.418-3.582,8-8,8s-8-3.582-8-8s3.582-8,8-8S248,1207.942,248,1212.36z"/>
</g>
</svg>