<?xml version="1.0" encoding="iso-8859-1"?>
<!-- Uploaded to: SVG Repo, www.svgrepo.com, Generator: SVG Repo Mixer Tools -->
<svg fill="#000000" height="800px" width="800px" version="1.1" id="Layer_1" xmlns="http://www.w3.org/2000/svg" xmlns:xlink="http://www.w3.org/1999/xlink" 
	 viewBox="0 0 512.002 512.002" xml:space="preserve">
<g>
	<g>
		<path d="M486.946,168.308H364.694c-9.226,0-16.704-7.479-16.704-16.703v-0.001c0-9.225,7.478-16.925,16.704-16.925h90.44
			c13.107,0,25.05-9.208,26.355-22.248c1.501-14.998-10.236-27.64-24.925-27.64H311.799v251.95c0,9.227-7.482,16.704-16.703,16.704
			s-16.704-7.477-16.704-16.704V84.791h-25.055c-9.226,0-16.704-7.479-16.704-16.704v-0.001c0-9.225,7.478-16.925,16.704-16.925
			h68.168c13.107,0,25.05-9.208,26.355-22.248c1.5-14.998-10.236-27.64-24.925-27.64h-41.759l-81.268-0.001
			c-56.988,0-109.259,24.833-145.704,64.031h-37.5C7.479,65.303,0,72.782,0,82.007v233.849c0,9.225,7.479,16.703,16.704,16.703
			h45.978c34.446,32.722,80.931,52.671,132.193,52.671H389.75c14.689,0,26.425-12.421,24.925-27.418
			c-1.305-13.04-13.248-22.47-26.355-22.47h-23.625c-9.226,0-16.704-7.479-16.704-16.704v-0.001c0-9.225,7.478-16.925,16.704-16.925
			h90.44c13.107,0,25.05-9.208,26.355-22.248c1.501-14.998-10.236-27.64-24.925-27.64h-91.869c-9.226,0-16.704-7.479-16.704-16.704
			v-0.001c0-9.225,7.478-16.925,16.704-16.925h120.822c13.107,0,25.05-9.208,26.355-22.248
			C513.372,180.951,501.635,168.308,486.946,168.308z"/>
	</g>
</g>
<g>
	<g>
		<path d="M295.096,370.148c-9.221,0-16.704,7.477-16.704,16.704v107.175c0,9.227,7.482,16.704,16.704,16.704
			c9.221,0,16.703-7.477,16.703-16.704V386.852C311.799,377.625,304.317,370.148,295.096,370.148z"/>
	</g>
</g>
<g>
	<g>
		<path d="M329.199,408.838h-66.814c-9.221,0-16.703,7.477-16.703,16.704c0,9.227,7.482,16.703,16.703,16.703l66.814-0.001
			c9.221,0,16.704-7.475,16.704-16.702S338.42,408.838,329.199,408.838z"/>
	</g>
</g>
</svg>